<svg width="104" height="24" viewBox="0 0 104 24" fill="none" xmlns="http://www.w3.org/2000/svg">
<g id="menu">
<g id="options">
<g id="Icon feather-more-vertical">
<path id="Path 139" d="M93.233 11.831C93.233 12.0416 93.1706 12.2475 93.0535 12.4227C92.9365 12.5978 92.7702 12.7343 92.5756 12.8149C92.381 12.8955 92.1668 12.9166 91.9603 12.8755C91.7537 12.8344 91.5639 12.733 91.415 12.5841C91.266 12.4351 91.1646 12.2454 91.1235 12.0388C91.0824 11.8322 91.1035 11.618 91.1841 11.4234C91.2647 11.2288 91.4012 11.0625 91.5763 10.9455C91.7515 10.8285 91.9574 10.766 92.168 10.766C92.4505 10.766 92.7214 10.8782 92.9211 11.0779C93.1208 11.2776 93.233 11.5485 93.233 11.831Z" fill="white" stroke="white" stroke-width="2" stroke-linecap="round" stroke-linejoin="round"/>
<path id="Path 140" d="M93.233 4.375C93.233 4.58563 93.1706 4.79154 93.0535 4.96668C92.9365 5.14182 92.7702 5.27832 92.5756 5.35893C92.381 5.43954 92.1668 5.46063 91.9603 5.41953C91.7537 5.37844 91.5639 5.27701 91.415 5.12807C91.266 4.97912 91.1646 4.78936 91.1235 4.58277C91.0824 4.37618 91.1035 4.16204 91.1841 3.96744C91.2647 3.77284 91.4012 3.60651 91.5763 3.48948C91.7515 3.37246 91.9574 3.31 92.168 3.31C92.4505 3.31 92.7214 3.4222 92.9211 3.62193C93.1208 3.82165 93.233 4.09254 93.233 4.375Z" fill="white" stroke="white" stroke-width="2" stroke-linecap="round" stroke-linejoin="round"/>
<path id="Path 141" d="M93.233 19.287C93.233 19.4976 93.1706 19.7035 93.0535 19.8787C92.9365 20.0538 92.7702 20.1903 92.5756 20.2709C92.381 20.3515 92.1668 20.3726 91.9603 20.3315C91.7537 20.2904 91.5639 20.189 91.415 20.0401C91.266 19.8911 91.1646 19.7013 91.1235 19.4948C91.0824 19.2882 91.1035 19.074 91.1841 18.8794C91.2647 18.6848 91.4012 18.5185 91.5763 18.4015C91.7515 18.2844 91.9574 18.222 92.168 18.222C92.4505 18.222 92.7214 18.3342 92.9211 18.5339C93.1208 18.7336 93.233 19.0045 93.233 19.287Z" fill="white" stroke="white" stroke-width="2" stroke-linecap="round" stroke-linejoin="round"/>
</g>
</g>
<g id="video call">
<g id="Icon feather-video">
<path id="Path 68" d="M61.5501 7.64499L55.4301 12.016L61.5501 16.387V7.64499Z" stroke="white" stroke-width="2" stroke-linecap="round" stroke-linejoin="round"/>
<path id="Path 69" d="M44.065 5.897H53.681C54.1446 5.897 54.5892 6.08117 54.917 6.40898C55.2449 6.73679 55.429 7.1814 55.429 7.645V16.387C55.429 16.8506 55.2449 17.2952 54.917 17.623C54.5892 17.9508 54.1446 18.135 53.681 18.135H44.065C43.6016 18.135 43.1571 17.951 42.8293 17.6234C42.5016 17.2958 42.3173 16.8514 42.317 16.388V7.645C42.317 7.1814 42.5012 6.73679 42.829 6.40898C43.1568 6.08117 43.6014 5.897 44.065 5.897V5.897Z" stroke="white" stroke-width="2" stroke-linecap="round" stroke-linejoin="round"/>
</g>
</g>
<g id="call">
<path id="Icon feather-phone" d="M20.4881 16.197V18.862C20.4891 19.1091 20.4385 19.3536 20.3395 19.58C20.2405 19.8063 20.0953 20.0095 19.9132 20.1765C19.7312 20.3435 19.5162 20.4707 19.2822 20.5498C19.0481 20.6289 18.8001 20.6583 18.5541 20.636C15.8242 20.3396 13.202 19.4069 10.8981 17.913C8.75528 16.5497 6.93895 14.7313 5.57806 12.587C4.07827 10.2729 3.14472 7.6381 2.85306 4.89599C2.83084 4.65069 2.85995 4.40345 2.93853 4.17002C3.01711 3.93658 3.14344 3.72207 3.30947 3.54014C3.47551 3.35821 3.67761 3.21285 3.9029 3.11331C4.1282 3.01377 4.37175 2.96224 4.61806 2.96199H7.27806C7.70892 2.95728 8.12677 3.10954 8.45359 3.39035C8.7804 3.67117 8.99384 4.06133 9.05406 4.48799C9.16742 5.33953 9.37675 6.17551 9.67806 6.97999C9.79738 7.2976 9.82312 7.64277 9.75222 7.97457C9.68132 8.30637 9.51676 8.61088 9.27806 8.85199L8.14906 9.97899C9.41179 12.1996 11.2504 14.0383 13.4711 15.301L14.5981 14.174C14.8392 13.9353 15.1437 13.7707 15.4755 13.6998C15.8073 13.6289 16.1524 13.6547 16.4701 13.774C17.275 14.0743 18.1113 14.2827 18.9631 14.395C19.3941 14.4559 19.7876 14.6732 20.0688 15.0055C20.35 15.3378 20.4992 15.7618 20.4881 16.197V16.197Z" stroke="white" stroke-width="2" stroke-linecap="round" stroke-linejoin="round"/>
</g>
</g>
</svg>
